<?xml version="1.0" encoding="UTF-8"?>
<!--Generator: Apple Native CoreSVG 148-->
<!DOCTYPE svg
PUBLIC "-//W3C//DTD SVG 1.1//EN"
       "http://www.w3.org/Graphics/SVG/1.1/DTD/svg11.dtd">
<svg version="1.1" xmlns="http://www.w3.org/2000/svg" xmlns:xlink="http://www.w3.org/1999/xlink" width="192" height="192">
 <g id="Symbols">
  <g id="Regular-L" transform="matrix(1 0 0 1 24 130)">
   <path d="M 51.6113 -50.8301 L 51.6113 -19.6777 L 38.0371 -19.6777 C 25.9277 -19.6777 16.0645 -10.0098 16.0645 2.14844 C 16.0645 14.3555 25.9277 24.2188 38.0371 24.2188 C 50.1465 24.2188 60.0098 14.3555 60.0098 2.14844 L 60.0098 -11.4258 L 90.9668 -11.4258 L 90.9668 2.14844 C 90.9668 14.3555 100.83 24.2188 112.939 24.2188 C 125.049 24.2188 134.912 14.3555 134.912 2.14844 C 134.912 -10.0098 125.049 -19.6777 112.939 -19.6777 L 99.3652 -19.6777 L 99.3652 -50.8301 L 112.939 -50.8301 C 125.049 -50.8301 134.912 -60.4492 134.912 -72.6562 C 134.912 -84.8145 125.049 -94.7266 112.939 -94.7266 C 100.83 -94.7266 90.9668 -84.8145 90.9668 -72.6562 L 90.9668 -59.082 L 60.0098 -59.082 L 60.0098 -72.6562 C 60.0098 -84.8145 50.1465 -94.7266 38.0371 -94.7266 C 25.9277 -94.7266 16.0645 -84.8145 16.0645 -72.6562 C 16.0645 -60.4492 25.9277 -50.8301 38.0371 -50.8301 Z M 38.0371 -58.9844 C 30.6152 -58.9844 24.4629 -65.1367 24.4629 -72.6562 C 24.4629 -80.127 30.6152 -86.2793 38.0371 -86.2793 C 45.459 -86.2793 51.6113 -80.127 51.6113 -72.6562 L 51.6113 -58.9844 Z M 112.939 -58.9844 L 99.3652 -58.9844 L 99.3652 -72.6562 C 99.3652 -80.127 105.518 -86.2793 112.939 -86.2793 C 120.361 -86.2793 126.514 -80.127 126.514 -72.6562 C 126.514 -65.1367 120.361 -58.9844 112.939 -58.9844 Z M 60.0098 -19.5801 L 60.0098 -50.9277 L 90.9668 -50.9277 L 90.9668 -19.5801 Z M 38.0371 -11.5723 L 51.6113 -11.5723 L 51.6113 2.09961 C 51.6113 9.61914 45.459 15.7715 38.0371 15.7715 C 30.6152 15.7715 24.4629 9.61914 24.4629 2.09961 C 24.4629 -5.41992 30.6152 -11.5723 38.0371 -11.5723 Z M 112.939 -11.5723 C 120.361 -11.5723 126.514 -5.41992 126.514 2.09961 C 126.514 9.61914 120.361 15.7715 112.939 15.7715 C 105.518 15.7715 99.3652 9.61914 99.3652 2.09961 L 99.3652 -11.5723 Z"/>
  </g>
 </g>
</svg>
