<?xml version="1.0" encoding="UTF-8"?>
<!--Generator: Apple Native CoreSVG 148-->
<!DOCTYPE svg
PUBLIC "-//W3C//DTD SVG 1.1//EN"
       "http://www.w3.org/Graphics/SVG/1.1/DTD/svg11.dtd">
<svg version="1.1" xmlns="http://www.w3.org/2000/svg" xmlns:xlink="http://www.w3.org/1999/xlink"  width="192" height="192">
 <g id="Symbols">
  <g id="Regular-L"  transform="matrix(1 0 0 1  14 128)">
   <path d="M 16.0645 -66.3574 C 16.0645 -63.8184 17.7734 -62.3047 20.3613 -62.3047 L 46.7285 -62.3047 L 46.7285 -0.585938 C 46.7285 2.14844 48.5352 3.95508 51.3184 3.95508 L 112.939 3.95508 L 112.939 30.127 C 112.939 32.7637 114.648 34.6191 117.236 34.6191 C 119.824 34.6191 121.582 32.7637 121.582 30.127 L 121.582 3.95508 L 147.998 3.95508 C 150.586 3.95508 152.295 2.39258 152.295 -0.146484 C 152.295 -2.68555 150.586 -4.19922 147.998 -4.19922 L 121.582 -4.19922 L 121.582 -65.918 C 121.582 -68.6523 119.824 -70.459 117.041 -70.459 L 55.4199 -70.459 L 55.4199 -96.6309 C 55.4199 -99.2676 53.7109 -101.123 51.123 -101.123 C 48.5352 -101.123 46.7285 -99.2676 46.7285 -96.6309 L 46.7285 -70.459 L 20.3613 -70.459 C 17.7734 -70.459 16.0645 -68.8477 16.0645 -66.3574 Z M 57.0801 -4.19922 C 55.9082 -4.19922 55.4199 -4.6875 55.4199 -5.9082 L 55.4199 -62.3047 L 111.23 -62.3047 C 112.451 -62.3047 112.939 -61.8164 112.939 -60.5957 L 112.939 -4.19922 Z"/>
  </g>
 </g>
</svg>
