<?xml version="1.0" encoding="UTF-8"?>
<!--Generator: Apple Native CoreSVG 148-->
<!DOCTYPE svg
PUBLIC "-//W3C//DTD SVG 1.1//EN"
       "http://www.w3.org/Graphics/SVG/1.1/DTD/svg11.dtd">
<svg version="1.1" xmlns="http://www.w3.org/2000/svg" xmlns:xlink="http://www.w3.org/1999/xlink"  width="192" height="192">
 <g id="Symbols">
  <g id="Regular-L"  transform="matrix(1 0 0 1 20 132)">
   <path d="M 133.301 -56.8359 C 136.133 -56.8359 137.646 -58.4473 137.646 -61.2305 L 137.646 -77.1484 C 137.646 -89.5508 131.299 -95.9473 118.652 -95.9473 L 102.734 -95.9473 C 99.9512 -95.9473 98.3398 -94.3848 98.3398 -91.6016 C 98.3398 -88.8672 99.9512 -87.3047 102.734 -87.3047 L 118.457 -87.3047 C 125.146 -87.3047 129.004 -83.6914 129.004 -76.6602 L 129.004 -61.2305 C 129.004 -58.4473 130.566 -56.8359 133.301 -56.8359 Z M 20.4102 -56.8359 C 23.1934 -56.8359 24.707 -58.4473 24.707 -61.2305 L 24.707 -76.6602 C 24.707 -83.6914 28.418 -87.3047 35.2539 -87.3047 L 50.9766 -87.3047 C 53.7598 -87.3047 55.3711 -88.8672 55.3711 -91.6016 C 55.3711 -94.3848 53.7598 -95.9473 50.9766 -95.9473 L 35.0586 -95.9473 C 22.4609 -95.9473 16.0645 -89.6484 16.0645 -77.1484 L 16.0645 -61.2305 C 16.0645 -58.4473 17.627 -56.8359 20.4102 -56.8359 Z M 51.4648 -0.634766 L 102.002 -0.634766 C 106.152 -0.634766 108.057 -2.19727 108.057 -6.34766 L 108.057 -63.9648 C 108.057 -68.1641 106.152 -69.7754 102.002 -69.7754 L 51.4648 -69.7754 C 47.3633 -69.7754 45.4102 -68.1641 45.4102 -63.9648 L 45.4102 -6.34766 C 45.4102 -2.19727 47.3633 -0.634766 51.4648 -0.634766 Z M 61.9629 -47.4609 C 60.1562 -47.4609 58.9355 -48.7305 58.9355 -50.4395 C 58.9355 -52.1973 60.1562 -53.4668 61.9629 -53.4668 L 91.5527 -53.4668 C 93.4082 -53.4668 94.5801 -52.1973 94.5801 -50.4395 C 94.5801 -48.7305 93.4082 -47.4609 91.5527 -47.4609 Z M 61.9629 -34.082 C 60.1562 -34.082 58.9355 -35.3516 58.9355 -37.0605 C 58.9355 -38.8184 60.1562 -40.0879 61.9629 -40.0879 L 78.125 -40.0879 C 79.8828 -40.0879 81.1523 -38.8184 81.1523 -37.0605 C 81.1523 -35.3516 79.8828 -34.082 78.125 -34.082 Z M 35.0586 25.6348 L 50.9766 25.6348 C 53.7598 25.6348 55.3711 24.0723 55.3711 21.2891 C 55.3711 18.5547 53.7598 16.9922 50.9766 16.9922 L 35.2539 16.9922 C 28.418 16.9922 24.707 13.3789 24.707 6.34766 L 24.707 -9.08203 C 24.707 -11.8652 23.1445 -13.4766 20.4102 -13.4766 C 17.5781 -13.4766 16.0645 -11.8652 16.0645 -9.08203 L 16.0645 6.83594 C 16.0645 19.3359 22.4609 25.6348 35.0586 25.6348 Z M 102.734 25.6348 L 118.652 25.6348 C 131.299 25.6348 137.646 19.2383 137.646 6.83594 L 137.646 -9.08203 C 137.646 -11.8652 136.084 -13.4766 133.301 -13.4766 C 130.518 -13.4766 129.004 -11.8652 129.004 -9.08203 L 129.004 6.34766 C 129.004 13.3789 125.146 16.9922 118.457 16.9922 L 102.734 16.9922 C 99.9512 16.9922 98.3398 18.5547 98.3398 21.2891 C 98.3398 24.0723 99.9512 25.6348 102.734 25.6348 Z"/>
  </g>
 </g>
</svg>
