<?xml version="1.0" encoding="UTF-8"?>
<!--Generator: Apple Native CoreSVG 148-->
<!DOCTYPE svg
PUBLIC "-//W3C//DTD SVG 1.1//EN"
       "http://www.w3.org/Graphics/SVG/1.1/DTD/svg11.dtd">
<svg version="1.1" xmlns="http://www.w3.org/2000/svg" xmlns:xlink="http://www.w3.org/1999/xlink" width="192" height="192">
 <g id="Symbols">
  <g id="Regular-L" transform="matrix(1 0 0 1 16 128)">
   <path d="M 81.8359 26.3184 C 83.5938 26.3184 85.2539 26.2207 87.0605 26.0254 L 90.5273 32.7148 C 91.2109 34.082 92.4316 34.668 94.1406 34.4727 C 95.7031 34.2285 96.6309 33.2031 96.8262 31.543 L 97.9004 24.1699 C 101.221 23.291 104.541 22.0215 107.666 20.6543 L 113.135 25.5371 C 114.258 26.6602 115.625 26.8555 117.188 26.0254 C 118.506 25.293 118.994 23.9746 118.701 22.3633 L 117.188 15.0879 C 119.971 13.1348 122.705 10.9375 125.146 8.44727 L 131.934 11.2793 C 133.447 11.9629 134.766 11.6211 135.938 10.2051 C 137.012 9.08203 137.109 7.66602 136.23 6.29883 L 132.275 -0.0488281 C 134.277 -2.83203 135.938 -5.85938 137.402 -9.0332 L 144.873 -8.64258 C 146.484 -8.59375 147.656 -9.375 148.193 -10.8887 C 148.73 -12.4023 148.291 -13.7207 147.021 -14.6973 L 141.211 -19.3848 C 142.09 -22.6074 142.725 -26.0742 142.969 -29.6387 L 150 -31.8359 C 151.562 -32.4219 152.441 -33.4473 152.441 -35.1074 C 152.441 -36.7188 151.562 -37.7441 150 -38.3301 L 142.969 -40.5273 C 142.725 -44.0918 142.041 -47.5098 141.211 -50.7812 L 147.021 -55.4688 C 148.242 -56.3477 148.633 -57.666 148.193 -59.1797 C 147.656 -60.7422 146.484 -61.5234 144.873 -61.4258 L 137.402 -61.1328 C 135.889 -64.3555 134.277 -67.2852 132.275 -70.166 L 136.23 -76.4648 C 137.109 -77.7344 137.012 -79.1504 135.938 -80.3223 C 134.766 -81.7383 133.447 -82.0312 131.934 -81.3477 L 125.146 -78.6133 C 122.705 -81.0059 119.971 -83.3008 117.188 -85.2051 L 118.701 -92.4316 C 118.994 -94.1406 118.506 -95.4102 117.188 -96.1426 C 115.625 -96.9727 114.307 -96.8262 113.135 -95.6543 L 107.666 -90.8203 C 104.541 -92.2363 101.221 -93.3594 97.9004 -94.2871 L 96.8262 -101.66 C 96.6309 -103.271 95.6543 -104.297 94.0918 -104.541 C 92.4316 -104.785 91.2109 -104.15 90.5273 -102.881 L 87.0605 -96.1914 C 85.2539 -96.3379 83.5938 -96.4355 81.8359 -96.4355 C 80.0781 -96.4355 78.4668 -96.3379 76.6602 -96.1914 L 73.1445 -102.881 C 72.5098 -104.15 71.2402 -104.785 69.5312 -104.541 C 68.0176 -104.297 67.041 -103.271 66.8457 -101.66 L 65.7715 -94.3359 C 62.4512 -93.3594 59.1797 -92.2852 56.0059 -90.8203 L 50.5371 -95.6543 C 49.3652 -96.7773 47.998 -96.9238 46.4844 -96.1426 C 45.166 -95.4102 44.6777 -94.1406 44.9707 -92.4316 L 46.5332 -85.2051 C 43.7012 -83.3008 40.9668 -81.0059 38.5254 -78.6133 L 31.7383 -81.3477 C 30.2734 -82.0312 28.9551 -81.7383 27.7344 -80.3223 C 26.709 -79.1504 26.6113 -77.7344 27.4414 -76.5137 L 31.4453 -70.166 C 29.4434 -67.2852 27.7832 -64.3555 26.3184 -61.1328 L 18.7988 -61.4258 C 17.2363 -61.5234 16.0156 -60.7422 15.5273 -59.1797 C 14.9902 -57.666 15.332 -56.3477 16.6992 -55.4688 L 22.5098 -50.7812 C 21.6309 -47.5098 20.9961 -44.0918 20.752 -40.5762 L 13.6719 -38.3301 C 12.0605 -37.793 11.2793 -36.7188 11.2793 -35.1074 C 11.2793 -33.4473 12.0605 -32.373 13.6719 -31.8359 L 20.752 -29.5898 C 20.9961 -26.0742 21.6309 -22.6074 22.5098 -19.3848 L 16.6992 -14.6973 C 15.4297 -13.8184 15.0391 -12.4512 15.5273 -10.8887 C 16.0156 -9.375 17.2363 -8.59375 18.7988 -8.64258 L 26.3184 -9.0332 C 27.7344 -5.85938 29.4434 -2.83203 31.3965 -0.0488281 L 27.4902 6.29883 C 26.5625 7.66602 26.6602 9.08203 27.7344 10.2051 C 28.9551 11.6211 30.2734 11.9629 31.7383 11.2793 L 38.5254 8.44727 C 40.9668 10.9375 43.7012 13.1348 46.5332 15.0879 L 44.9707 22.3633 C 44.6777 23.9746 45.166 25.293 46.4844 26.0254 C 48.0469 26.8555 49.3652 26.6602 50.5371 25.5371 L 56.0059 20.6543 C 59.1797 22.0215 62.4512 23.291 65.7715 24.1699 L 66.8457 31.543 C 67.041 33.2031 68.0176 34.2285 69.5801 34.4727 C 71.2402 34.668 72.5098 34.082 73.1445 32.7148 L 76.6602 26.0254 C 78.3691 26.2207 80.0781 26.3184 81.8359 26.3184 Z M 97.2168 -38.623 C 94.7266 -46.1914 88.916 -50.7324 81.7871 -50.7324 C 80.5176 -50.7324 79.1992 -50.5371 77.2461 -50.0488 L 58.1543 -82.7148 C 65.2344 -86.2793 73.2422 -88.2324 81.8359 -88.2324 C 110.254 -88.2324 132.52 -66.5527 134.277 -38.623 Z M 29.3457 -35.0586 C 29.3457 -53.3203 38.0859 -69.3359 51.7578 -78.8574 L 70.9473 -46.0938 C 67.5781 -42.7734 65.8691 -38.916 65.8691 -34.7656 C 65.8691 -30.6641 67.5781 -26.9043 71.0938 -23.4863 L 51.5137 8.59375 C 37.9883 -0.976562 29.3457 -16.8945 29.3457 -35.0586 Z M 73.6816 -34.8145 C 73.6816 -39.3555 77.4902 -42.9199 81.8848 -42.9199 C 86.377 -42.9199 90.1367 -39.3555 90.1367 -34.8145 C 90.1367 -30.3223 86.377 -26.6113 81.8848 -26.6113 C 77.4902 -26.6113 73.6816 -30.3223 73.6816 -34.8145 Z M 81.8359 18.1641 C 73.1445 18.1641 65.0391 16.1133 57.9102 12.5 L 77.3438 -19.4824 C 79.1992 -18.9941 80.5664 -18.8477 81.7871 -18.8477 C 89.0137 -18.8477 94.8242 -23.5352 97.2168 -31.3477 L 134.277 -31.3477 C 132.471 -3.51562 110.205 18.1641 81.8359 18.1641 Z"/>
  </g>
 </g>
</svg>
