<?xml version="1.0" encoding="UTF-8"?>
<!--Generator: Apple Native CoreSVG 148-->
<!DOCTYPE svg
PUBLIC "-//W3C//DTD SVG 1.1//EN"
       "http://www.w3.org/Graphics/SVG/1.1/DTD/svg11.dtd">
<svg version="1.1" xmlns="http://www.w3.org/2000/svg" xmlns:xlink="http://www.w3.org/1999/xlink" width="192" height="192">
 <g id="Symbols">
  <g id="Regular-L" transform="matrix(1 0 0 1 54 128)">
   <path d="M 31.8359 -78.3691 C 31.8359 -73.8281 35.4492 -70.2637 39.9902 -70.2637 C 44.5801 -70.2637 48.1445 -73.8281 48.0957 -78.3691 C 48.0957 -83.0078 44.5801 -86.5723 39.9902 -86.5723 C 35.4492 -86.5723 31.8359 -83.0078 31.8359 -78.3691 Z M 16.0645 5.27344 C 16.0645 7.91016 17.9199 9.66797 20.752 9.66797 L 60.791 9.66797 C 63.623 9.66797 65.5273 7.91016 65.5273 5.27344 C 65.5273 2.68555 63.623 0.927734 60.791 0.927734 L 47.2168 0.927734 L 47.2168 -49.2188 C 47.2168 -52.0996 45.3613 -54.0039 42.5781 -54.0039 L 22.9004 -54.0039 C 20.0684 -54.0039 18.1641 -52.2949 18.1641 -49.6582 C 18.1641 -47.0215 20.0684 -45.2637 22.9004 -45.2637 L 37.4023 -45.2637 L 37.4023 0.927734 L 20.752 0.927734 C 17.9199 0.927734 16.0645 2.68555 16.0645 5.27344 Z"/>
  </g>
 </g>
</svg>
