<?xml version="1.0" encoding="UTF-8"?>
<!--Generator: Apple Native CoreSVG 148-->
<!DOCTYPE svg
PUBLIC "-//W3C//DTD SVG 1.1//EN"
       "http://www.w3.org/Graphics/SVG/1.1/DTD/svg11.dtd">
<svg version="1.1" xmlns="http://www.w3.org/2000/svg" xmlns:xlink="http://www.w3.org/1999/xlink" width="192" height="192">
 <g id="Symbols">
  <g id="Regular-L"  transform="matrix(1 0 0 1 6 130)">
   <path d="M 20.3613 -31.4941 L 38.623 -31.4941 L 38.623 -11.377 C 38.623 -1.31836 44.9707 4.3457 56.543 6.39648 L 87.1094 11.7188 L 87.1094 33.6914 C 87.1094 36.3281 88.623 37.9883 91.2109 37.9883 C 93.7012 37.9883 95.2637 36.3281 95.2637 33.6914 L 95.2637 13.1348 L 125.83 18.457 C 137.012 20.4102 143.75 13.0859 143.75 0.683594 L 143.75 -31.4941 L 162.012 -31.4941 C 164.697 -31.4941 166.309 -33.1055 166.309 -35.5469 C 166.309 -38.1348 164.697 -39.6973 162.012 -39.6973 L 143.75 -39.6973 L 143.75 -71.875 C 143.75 -84.7656 137.402 -91.6504 125.83 -89.6484 L 95.2637 -84.3262 L 95.2637 -104.883 C 95.2637 -107.52 93.7012 -109.18 91.2109 -109.18 C 88.623 -109.18 87.1094 -107.52 87.1094 -104.883 L 87.1094 -82.9102 L 56.543 -77.5879 C 44.9707 -75.5371 38.623 -69.9219 38.623 -59.8145 L 38.623 -39.6973 L 20.3613 -39.6973 C 17.6758 -39.6973 16.0645 -38.1348 16.0645 -35.5469 C 16.0645 -33.1055 17.6758 -31.4941 20.3613 -31.4941 Z M 126.123 -81.543 C 132.324 -82.5684 135.596 -78.8574 135.596 -71.9727 L 135.596 -39.6973 L 95.2637 -39.6973 L 95.2637 -76.2207 Z M 46.7773 -59.9121 C 46.7773 -65.5273 50.0488 -68.457 56.25 -69.4824 L 87.1094 -74.8047 L 87.1094 -39.6973 L 46.7773 -39.6973 Z M 56.25 -1.70898 C 50.0488 -2.73438 46.7773 -5.66406 46.7773 -11.2793 L 46.7773 -31.4941 L 87.1094 -31.4941 L 87.1094 3.61328 Z M 126.123 10.3516 L 95.2637 5.0293 L 95.2637 -31.4941 L 135.596 -31.4941 L 135.596 0.78125 C 135.596 7.4707 132.178 11.377 126.123 10.3516 Z"/>
  </g>
 </g>
</svg>
