<?xml version="1.0" encoding="UTF-8"?>
<!--Generator: Apple Native CoreSVG 148-->
<!DOCTYPE svg
PUBLIC "-//W3C//DTD SVG 1.1//EN"
       "http://www.w3.org/Graphics/SVG/1.1/DTD/svg11.dtd">
<svg version="1.1" xmlns="http://www.w3.org/2000/svg" xmlns:xlink="http://www.w3.org/1999/xlink" width="192" height="192">
 <g id="Symbols">
  <g id="Regular-L" transform="matrix(1 0 0 1  4 132)">
   <path d="M 38.5742 -92.5293 C 25.9766 -92.5293 19.5801 -86.2305 19.5801 -73.7305 L 19.5801 -56.7383 C 19.5801 -53.9551 21.1914 -52.3438 23.877 -52.3438 C 26.6113 -52.3438 28.2227 -53.9551 28.2227 -56.7383 L 28.2227 -73.291 C 28.2227 -80.2734 31.9336 -83.8867 38.7207 -83.8867 L 148.291 -83.8867 C 154.98 -83.8867 158.838 -80.2734 158.838 -73.291 L 158.838 -56.7383 C 158.838 -53.9551 160.449 -52.3438 163.184 -52.3438 C 165.967 -52.3438 167.48 -53.9551 167.48 -56.7383 L 167.48 -73.7305 C 167.48 -86.1816 161.133 -92.5293 148.486 -92.5293 Z M 93.3105 -6.34766 C 96.1426 -6.34766 97.7051 -8.20312 97.7051 -11.1328 L 97.7051 -56.8359 L 113.916 -56.8359 C 116.016 -56.8359 117.529 -58.252 117.529 -60.4492 C 117.529 -62.6953 116.016 -64.0137 113.916 -64.0137 L 73.0957 -64.0137 C 71.0449 -64.0137 69.4824 -62.6953 69.4824 -60.4492 C 69.4824 -58.252 71.0449 -56.8359 73.0957 -56.8359 L 89.0625 -56.8359 L 89.0625 -11.1328 C 89.0625 -8.30078 90.5762 -6.34766 93.3105 -6.34766 Z M 23.877 -28.6621 C 28.1738 -28.6621 31.6895 -32.1777 31.6895 -36.5234 C 31.6895 -40.8203 28.1738 -44.2871 23.877 -44.2871 C 19.5801 -44.2871 16.0645 -40.8203 16.0645 -36.5234 C 16.0645 -32.1777 19.5801 -28.6621 23.877 -28.6621 Z M 163.184 -28.6621 C 167.432 -28.6621 170.947 -32.1777 170.947 -36.5234 C 170.947 -40.8203 167.432 -44.2871 163.184 -44.2871 C 158.838 -44.2871 155.322 -40.8691 155.322 -36.5234 C 155.322 -32.1777 158.838 -28.6621 163.184 -28.6621 Z M 38.5742 22.2168 L 148.486 22.2168 C 161.133 22.2168 167.48 15.8691 167.48 3.41797 L 167.48 -16.0156 C 167.48 -18.7988 165.918 -20.4102 163.184 -20.4102 C 160.4 -20.4102 158.838 -18.7988 158.838 -16.0156 L 158.838 2.97852 C 158.838 9.96094 154.98 13.5742 148.291 13.5742 L 38.7207 13.5742 C 31.9336 13.5742 28.2227 9.96094 28.2227 2.97852 L 28.2227 -16.0156 C 28.2227 -18.7988 26.6113 -20.4102 23.877 -20.4102 C 21.1914 -20.4102 19.5801 -18.7988 19.5801 -16.0156 L 19.5801 3.41797 C 19.5801 15.918 25.9766 22.2168 38.5742 22.2168 Z"/>
  </g>
 </g>
</svg>
